<?xml version="1.0" standalone="no"?>
<!DOCTYPE svg PUBLIC "-//W3C//DTD SVG 20010904//EN"
 "http://www.w3.org/TR/2001/REC-SVG-20010904/DTD/svg10.dtd">
<svg version="1.0" xmlns="http://www.w3.org/2000/svg"
 width="938.000000pt" height="400.000000pt" viewBox="0 0 938.000000 400.000000"
 preserveAspectRatio="xMidYMid meet">

<g transform="translate(0.000000,400.000000) scale(0.100000,-0.100000)"
fill="#000000" stroke="none">
<path d="M1038 3989 c-102 -15 -181 -40 -283 -88 -219 -105 -327 -227 -406
-462 -28 -84 -32 -105 -31 -204 2 -209 41 -325 148 -444 70 -77 158 -142 250
-187 l74 -35 0 -48 c0 -119 77 -224 214 -291 133 -65 185 -75 391 -74 168 1
252 9 497 50 l36 6 -19 -88 c-93 -417 -256 -822 -470 -1164 -140 -225 -236
-329 -403 -441 -146 -97 -342 -159 -504 -159 -57 0 -74 -3 -79 -16 -11 -28 19
-35 118 -30 356 21 675 225 915 586 230 345 398 723 494 1110 21 85 41 172 44
192 7 37 7 37 94 63 48 14 102 31 120 37 18 5 35 8 37 6 5 -6 -259 -737 -314
-867 -154 -366 -355 -706 -522 -884 -225 -241 -485 -357 -798 -357 -184 0
-309 39 -401 126 -141 132 -154 369 -32 609 74 147 237 338 394 462 209 165
483 288 778 347 126 26 155 41 147 76 -7 37 -306 -10 -537 -86 -256 -84 -471
-210 -638 -376 -190 -187 -308 -393 -342 -597 -31 -183 49 -406 184 -513 116
-93 250 -130 466 -130 177 0 303 20 461 72 230 76 384 173 575 364 72 72 156
166 188 209 174 234 339 560 441 865 20 61 41 114 45 117 8 5 115 -194 240
-444 175 -350 348 -639 486 -811 198 -245 446 -428 645 -475 94 -22 236 -20
306 5 154 54 255 203 270 400 l6 78 46 -29 c110 -70 282 -89 431 -48 219 60
586 291 727 457 55 64 64 88 38 98 -10 4 -49 -26 -113 -87 -214 -206 -408
-321 -615 -363 -147 -31 -222 -16 -305 58 -55 50 -82 119 -89 225 -6 96 7 200
38 308 21 70 22 72 58 77 57 9 462 38 466 34 2 -2 -11 -23 -30 -47 -96 -121
-32 -118 104 6 64 58 79 66 158 89 48 14 99 32 113 40 23 12 18 13 -57 14 -46
0 -83 2 -83 5 0 3 16 29 35 58 91 138 115 282 63 383 -46 89 -122 140 -255
175 -95 24 -145 24 -222 0 -86 -27 -144 -67 -242 -168 -111 -114 -168 -196
-251 -360 -75 -148 -119 -277 -137 -398 -7 -44 -14 -95 -17 -113 l-5 -33 -40
45 c-38 43 -69 59 -69 35 0 -5 17 -36 39 -67 54 -80 69 -113 105 -221 28 -89
31 -106 31 -241 0 -133 -2 -149 -24 -193 -61 -124 -227 -143 -421 -49 -178 87
-423 316 -673 628 -55 68 -640 935 -634 940 1 1 58 10 127 19 252 34 532 101
747 180 145 53 402 183 528 266 75 50 145 107 220 183 93 93 118 125 153 196
152 303 51 573 -278 748 -212 113 -540 195 -875 218 l-99 7 45 41 c25 23 61
48 80 57 100 47 114 56 117 73 5 26 -14 35 -58 25 -85 -19 -182 -74 -265 -150
l-40 -36 -217 -12 c-240 -12 -461 -39 -637 -76 -63 -14 -116 -24 -117 -22 -1
1 -17 27 -35 57 -118 197 -302 357 -485 421 -121 43 -245 56 -366 38z m297
-74 c186 -50 388 -207 488 -376 20 -35 38 -67 39 -72 2 -4 -64 -30 -147 -58
-374 -125 -668 -319 -819 -542 -51 -75 -96 -174 -96 -212 0 -22 -15 -19 -84
17 -87 47 -204 166 -243 248 -66 140 -85 358 -43 495 85 271 273 453 530 510
83 19 290 13 375 -10z m1495 -399 c0 -2 -29 -48 -65 -101 -115 -172 -260 -478
-375 -795 -30 -80 -58 -150 -64 -156 -13 -14 -264 -90 -271 -82 -3 3 0 48 6
99 7 52 12 184 13 294 1 228 -12 320 -70 493 -19 57 -34 106 -32 107 2 2 44
16 93 30 180 52 442 96 650 108 104 7 115 7 115 3z m311 -16 c437 -45 791
-212 918 -434 46 -79 67 -189 53 -275 -37 -223 -280 -480 -622 -659 -264 -138
-603 -244 -905 -283 -82 -10 -151 -19 -152 -19 -1 0 -7 9 -13 20 -9 17 3 66
59 253 38 128 77 257 85 287 l16 55 113 57 c177 90 493 284 577 354 31 27 43
84 17 84 -7 0 -64 -34 -127 -76 -173 -114 -524 -304 -537 -290 -7 7 112 392
169 544 56 150 104 259 149 338 35 62 29 61 200 44z m-1220 -177 c6 -16 22
-75 36 -133 21 -88 26 -138 30 -312 5 -194 -7 -423 -26 -495 -7 -27 -12 -29
-140 -55 -264 -53 -590 -69 -706 -34 -131 39 -197 94 -216 182 -7 30 -10 57
-7 60 4 3 32 1 64 -5 134 -25 282 -7 398 49 72 34 179 118 184 144 8 41 -16
36 -74 -13 -69 -59 -155 -105 -239 -126 -91 -23 -286 -17 -313 10 -4 3 10 39
31 78 91 177 326 381 602 523 125 65 327 153 353 154 7 0 17 -12 23 -27z
m3208 -1547 c72 -38 68 -173 -11 -361 l-34 -80 -109 -6 c-61 -4 -176 -7 -258
-8 l-147 -1 19 38 c54 107 237 310 338 376 81 53 151 68 202 42z"/>
<path d="M7427 2769 c-24 -14 -57 -82 -110 -229 -34 -96 -155 -478 -193 -612
-4 -15 -17 -18 -69 -18 -91 0 -313 -19 -360 -32 -62 -15 -85 -43 -85 -99 0
-26 5 -51 11 -54 5 -4 109 6 229 21 121 15 222 25 225 23 3 -3 -23 -79 -56
-170 -182 -491 -229 -673 -230 -888 -1 -150 17 -193 95 -230 191 -89 422 -17
765 239 67 49 123 90 126 90 3 0 5 -12 5 -27 1 -93 58 -209 145 -292 64 -61
95 -76 190 -87 127 -15 315 117 438 306 142 220 267 542 267 689 l0 51 43 -7
c23 -5 96 -8 162 -7 149 1 261 33 321 90 57 53 41 57 -142 38 -148 -16 -163
-16 -215 -1 -30 9 -73 29 -95 45 -33 24 -43 40 -56 88 -9 32 -31 81 -49 108
-61 92 -191 175 -288 183 -48 4 -61 1 -94 -21 -21 -14 -44 -26 -52 -26 -8 0
-40 -9 -71 -21 -69 -26 -175 -123 -238 -218 -125 -189 -235 -488 -261 -708
l-7 -61 -86 -65 c-157 -116 -225 -160 -337 -213 -122 -58 -169 -73 -237 -75
-180 -7 -179 245 2 781 33 96 81 229 107 295 44 108 51 120 78 126 17 4 138
19 270 34 277 30 348 42 342 58 -8 26 -105 39 -349 44 -137 3 -248 7 -248 9 0
2 65 133 144 292 79 158 147 302 151 320 9 45 -25 112 -95 185 -59 60 -64 63
-93 46z m1023 -1059 c0 -87 109 -196 217 -218 37 -8 38 -9 41 -55 3 -52 -22
-166 -70 -310 -106 -322 -326 -606 -471 -607 -73 0 -139 55 -163 139 -19 63
-14 150 17 305 62 311 242 669 378 753 47 30 51 29 51 -7z"/>
<path d="M6120 1995 c-108 -31 -210 -108 -299 -225 -121 -161 -143 -244 -101
-381 48 -159 129 -279 286 -424 122 -112 154 -160 154 -230 0 -55 -15 -111
-34 -132 -12 -13 -156 -30 -486 -58 -102 -9 -206 -22 -231 -31 -128 -41 -136
-160 -13 -194 66 -19 264 -7 410 24 210 43 297 80 365 153 21 22 101 74 195
127 193 107 285 167 318 207 22 26 34 59 22 59 -2 0 -49 -28 -104 -62 -114
-72 -349 -195 -356 -187 -3 3 -1 23 5 45 6 21 9 63 6 93 -9 87 -50 155 -160
266 -186 188 -224 336 -133 520 67 135 199 246 351 296 107 36 161 10 179 -86
13 -67 61 -44 61 29 0 64 -49 127 -129 166 -54 27 -77 32 -157 36 -66 3 -110
-1 -149 -11z"/>
</g>
</svg>
